<svg width="58" height="58" viewBox="0 0 58 58" fill="none" xmlns="http://www.w3.org/2000/svg">
<rect width="57.2554" height="57.2554" fill="#F6F1EB"/>
<path fill-rule="evenodd" clip-rule="evenodd" d="M31.2398 18.4967C31.3276 17.9209 31.4422 17.3477 31.4976 16.7689C31.5789 15.9245 31.6093 15.0755 31.6757 14.23C31.7741 12.9644 31.8621 11.697 31.9988 10.4352C32.1051 9.45316 32.2508 8.47349 32.4322 7.50234C32.5247 7.01002 32.6974 6.52291 33.0609 6.13865C33.3948 5.78632 33.5548 5.75038 33.9576 6.0216C34.4871 6.37795 34.7838 6.8925 34.917 7.51227C35.0651 8.20369 35.2011 8.89132 35.2323 9.60402C35.2724 10.5099 35.3959 11.4115 35.4622 12.3167C35.5159 13.0413 35.4986 13.7729 35.5835 14.4931C35.7254 15.6993 35.7977 16.9062 35.7791 18.1195C35.7751 18.3622 35.7815 18.6059 35.8005 18.8476C35.8816 19.8535 35.9748 20.858 36.0538 21.8639C36.1301 22.8483 36.1857 23.8346 36.2728 24.8183C36.2849 24.9569 36.4059 25.0978 36.5039 25.2146C37.2705 26.1295 37.5289 27.2224 37.3249 28.3383C37.1827 29.1132 36.7937 29.8703 36.3916 30.5651C35.7851 31.6147 35.0699 32.6027 34.4022 33.6178C33.9557 34.2969 33.496 34.9848 33.3717 35.7994C33.1168 37.4686 33.2207 39.1456 33.3883 40.8158C33.4673 41.598 33.6187 42.3729 33.7238 43.1532C33.9264 44.6512 34.1364 46.1492 34.3042 47.6521C34.348 48.0404 34.3699 48.5167 34.1861 48.8252C33.8594 49.3729 33.3938 49.8378 32.7861 50.1409C32.1369 50.4651 31.4628 50.6042 30.7448 50.6921C29.1607 50.8867 27.5762 50.812 25.9907 50.8274C25.9108 50.8286 25.8283 50.8096 25.7508 50.7877C24.658 50.4758 23.5524 50.2015 22.4791 49.8352C21.4885 49.4975 21.556 49.3183 21.605 48.3764C21.6074 48.336 21.6228 48.2967 21.6314 48.2575C21.9602 46.737 22.2993 45.2185 22.616 43.6956C22.9651 42.013 23.2811 40.3263 23.2154 38.5921C23.1905 37.9326 23.0813 37.3085 22.7784 36.7202C22.3438 35.8741 21.8278 35.0574 21.5006 34.1721C21.0672 32.9999 20.755 31.7798 20.4468 30.5663C20.3089 30.0231 20.293 29.4464 20.2499 28.8826C20.1674 27.797 20.0809 26.7105 20.0402 25.6225C20.0015 24.5726 19.9805 23.5194 20.0279 22.4707C20.05 21.9812 20.039 21.5118 19.9722 21.0273C19.8881 20.4095 19.8671 19.78 19.8647 19.1557C19.8643 18.9538 19.9632 18.7126 20.0963 18.5568C20.5448 18.0316 21.149 17.7611 21.8093 17.5702C22.2798 17.4343 22.635 17.6967 23.0369 17.8053C23.112 17.8256 23.1843 17.8552 23.283 17.8892C24.4538 16.8566 25.7094 16.9013 26.9608 17.6655C27.1142 17.5589 27.2176 17.4941 27.313 17.4196C27.8951 16.9639 28.5368 16.805 29.2587 17.0171C29.6277 17.1259 29.9944 17.2463 30.3686 17.3333C30.784 17.4295 30.9669 17.7237 31.0819 18.0855C31.1231 18.2146 31.1345 18.3529 31.159 18.4872C31.1858 18.4901 31.2127 18.4934 31.2398 18.4967ZM28.4281 26.8552C27.5517 27.3877 26.9128 28.1342 26.2345 28.859C25.5418 29.5994 25.2432 30.5391 24.7239 31.3724C24.5082 30.6393 24.8382 30.0252 25.1787 29.4577C25.5287 28.8744 25.9986 28.3622 26.4534 27.7708C26.331 27.7538 26.2266 27.7301 26.1215 27.7259C25.3637 27.6932 24.7776 27.3688 24.4885 26.662C24.3477 26.3182 24.1328 26.273 23.8251 26.2846C23.4794 26.2976 23.1329 26.2872 22.7875 26.2856C21.8908 26.2813 21.2341 25.8403 20.7742 25.117C20.6458 24.9157 20.6154 24.6147 20.6363 24.3676C20.6694 23.9675 20.5864 23.6116 20.3838 23.1754C20.3838 24.0481 20.3517 24.8332 20.3909 25.615C20.4509 26.7833 20.5384 27.9517 20.658 29.1153C20.7362 29.8763 20.8639 30.6348 21.0208 31.3837C21.157 32.0354 21.3159 32.6906 21.5534 33.3109C21.8853 34.1759 22.1994 35.0742 22.6997 35.8434C23.6981 37.3781 23.8365 39.0409 23.574 40.7443C23.2169 43.0581 22.7344 45.3528 22.2962 47.6536C22.2282 48.0106 22.0903 48.3537 22.0168 48.7094C21.9217 49.17 21.9971 49.3398 22.4006 49.4611C23.4689 49.7817 24.5429 50.0828 25.6198 50.3727C25.8504 50.4346 26.1034 50.4351 26.3453 50.4304C27.565 50.4041 28.7867 50.3994 30.0034 50.3239C30.8489 50.2717 31.6902 50.1691 32.4655 49.738C33.001 49.4396 33.3957 49.0206 33.7604 48.5621C33.8601 48.4363 33.8884 48.2178 33.8758 48.048C33.8178 47.2428 33.7478 46.4386 33.6561 45.6384C33.5277 44.5155 33.3748 43.3958 33.2335 42.275C33.1151 41.3341 32.9439 40.396 32.8945 39.4516C32.8379 38.3622 32.864 37.2662 32.8992 36.1747C32.9437 34.8337 33.6879 33.7796 34.4103 32.7216C34.8785 32.0359 35.325 31.3357 35.796 30.6521C36.3091 29.9079 36.6373 29.0803 36.9012 28.2295C36.9937 27.9313 36.9578 27.5941 36.9794 27.2747C36.9806 27.2555 36.9682 27.2361 36.9637 27.2165C36.5752 25.2688 36.6427 25.5159 34.9165 24.2808C33.5952 23.335 32.1774 22.5336 30.7044 21.8365C30.0003 21.5031 29.2715 21.2208 28.4793 21.2834C27.9783 21.3231 27.4709 21.426 26.9937 21.5828C26.3579 21.7913 25.7423 22.0663 25.1298 22.3373C24.0897 22.7975 23.0557 23.2714 22.0252 23.7526C21.7886 23.863 21.557 24.0035 21.357 24.1709C20.9055 24.5492 20.91 24.933 21.3199 25.3671C21.6178 25.6823 22.0054 25.8384 22.4084 25.8538C23.6663 25.9018 24.9334 25.9734 26.1531 25.5556C26.4779 25.4447 26.7916 25.2971 27.0983 25.1423C27.4768 24.9514 27.527 24.9488 27.7429 25.2697C27.9788 25.6211 28.1937 25.9879 28.445 26.3281C29.3279 27.5258 30.3874 28.4542 31.9755 28.5516C32.2244 28.5667 32.2237 28.5757 32.4106 28.9507C30.6432 29.0311 29.54 27.9529 28.4281 26.8552ZM35.7927 24.4934C35.7986 24.2711 35.8243 24.0427 35.8077 23.8176C35.6871 22.2293 35.5445 20.6421 35.4356 19.0531C35.3747 18.1671 35.3818 17.2768 35.3281 16.3905C35.2572 15.2226 35.1552 14.0566 35.0692 12.8894C35.057 12.7282 35.0642 12.5653 35.0518 12.4042C34.9752 11.4402 34.9156 10.474 34.8093 9.51322C34.7275 8.77356 34.605 8.03651 34.46 7.30631C34.4067 7.03934 34.2778 6.76268 34.109 6.54939C33.7721 6.12447 33.2923 6.19682 33.0552 6.6759C32.7166 7.36022 32.6134 8.10744 32.5466 8.84852C32.4092 10.3754 32.3345 11.9076 32.2144 13.4359C32.106 14.8218 31.9733 16.2058 31.8473 17.5901C31.8181 17.9117 31.7836 18.2338 31.7303 18.552C31.6478 19.0474 31.5877 19.553 31.2593 19.9701C31.2103 20.0318 31.1597 20.1051 31.1478 20.1794C31.0736 20.6331 31.0111 21.089 30.9493 21.5111C32.5609 22.5033 34.1454 23.4792 35.7927 24.4934ZM22.8671 22.8145C23.3424 22.5863 23.3417 22.527 23.2685 22.011C23.1926 21.4742 23.1396 20.9318 23.1144 20.3903C23.0894 19.8452 23.1132 19.2976 23.1108 18.7511C23.1084 18.1569 22.6674 17.7805 22.091 17.9282C21.7215 18.0228 21.3494 18.1633 21.0227 18.3567C20.5117 18.6589 20.2293 19.0718 20.2514 19.7438C20.2949 21.0916 20.6824 22.3574 20.9452 23.6979C21.6523 23.374 22.2648 23.1042 22.8671 22.8145ZM30.507 21.3771C30.5895 20.8651 30.6932 20.4014 30.7322 19.9327C30.7747 19.4092 30.765 18.8802 30.765 18.3536C30.7657 17.8469 30.6772 17.7076 30.1884 17.5613C29.8213 17.4511 29.4403 17.365 29.0594 17.3248C28.1186 17.2259 27.2367 17.8672 27.079 18.8039C26.9694 19.456 26.9556 20.1243 26.9059 20.7859C26.9005 20.8568 26.9466 20.9313 26.9872 21.0635C28.1847 20.6348 29.3188 20.8777 30.507 21.3771ZM26.4615 21.2208C26.5405 20.1063 26.6168 19.029 26.7003 17.8556C26.0411 17.4657 25.2884 17.3494 24.4828 17.7041C24.4459 17.7204 24.4131 17.745 24.3779 17.7663C23.3707 18.3737 23.5467 18.181 23.5538 19.1666C23.5602 20.0725 23.6142 20.9781 23.6572 21.8833C23.6651 22.0368 23.724 22.1879 23.7706 22.3891C24.7379 21.9692 25.6255 21.5835 26.4615 21.2208ZM24.8019 26.3373C24.7707 26.7495 24.969 27.0349 25.3426 27.1612C25.6219 27.2553 25.9341 27.3137 26.2273 27.2976C26.7105 27.2711 26.9121 26.9529 26.8232 26.4693C26.7908 26.2948 26.7595 26.12 26.7278 25.9474C26.0787 26.0784 25.4519 26.2054 24.8019 26.3373ZM28.1666 26.4509C27.9481 26.1264 27.7522 25.8358 27.5617 25.553C27.0514 25.7887 27.0429 25.8528 27.3551 27.0335C27.6478 26.8235 27.886 26.6526 28.1666 26.4509Z" fill="black"/>
</svg>
