<svg width="58" height="58" viewBox="0 0 58 58" fill="none" xmlns="http://www.w3.org/2000/svg">
<rect width="57.2554" height="57.2554" fill="#F6F1EB"/>
<path fill-rule="evenodd" clip-rule="evenodd" d="M31.2407 22.2952C31.2782 22.1821 31.3354 22.0715 31.3504 21.9555C31.4138 21.4688 31.421 20.9707 31.5299 20.4953C31.8439 19.127 31.8076 17.7266 31.952 16.3434C32.0984 14.9413 32.1453 13.5287 32.3023 12.1283C32.3874 11.372 32.5812 10.6223 32.7883 9.88695C32.8738 9.58098 33.1069 9.30995 33.2998 9.04214C33.4602 8.81984 33.6708 8.8118 33.925 8.938C34.5027 9.22489 34.8151 9.72879 34.9685 10.3023C35.2726 11.4409 35.3466 12.6207 35.4551 13.7906C35.5149 14.4356 35.4937 15.0878 35.5418 15.7342C35.625 16.867 35.7917 17.9969 35.8165 19.1305C35.8551 20.8598 35.8891 22.5851 36.0907 24.3064C36.2043 25.2782 36.2245 26.2607 36.3096 27.2363C36.3227 27.3896 36.4349 27.5514 36.5392 27.6779C37.2751 28.5703 37.5264 29.6316 37.3266 30.7162C37.1875 31.4691 36.8117 32.2047 36.4232 32.8796C35.8363 33.8998 35.1452 34.86 34.4993 35.8469C34.0676 36.5069 33.6267 37.1759 33.5048 37.9676C33.2582 39.5703 33.3628 41.1815 33.5094 42.7861C33.5811 43.5661 33.7416 44.3376 33.846 45.1152C34.0393 46.5525 34.2384 47.9885 34.3965 49.4294C34.4404 49.8267 34.4728 50.3103 34.291 50.6278C33.9846 51.163 33.5273 51.6124 32.9398 51.9068C32.3117 52.222 31.6605 52.3572 30.9667 52.4425C29.4355 52.6319 27.9033 52.5593 26.3709 52.574C26.2935 52.5753 26.2139 52.5579 26.139 52.536C25.0647 52.2255 23.9825 51.9404 22.9202 51.5928C22.1577 51.3432 22.0441 51.105 22.1172 50.3106C22.1248 50.2329 22.1386 50.1547 22.1554 50.0779C22.4726 48.6002 22.7995 47.1235 23.1066 45.6435C23.4508 43.9888 23.7535 42.3298 23.6857 40.6243C23.662 40.0239 23.5639 39.4515 23.2914 38.917C23.0236 38.3922 22.7425 37.874 22.462 37.3552C21.7232 35.9888 21.3768 34.4918 21.0416 32.9969C20.9048 32.3879 20.872 31.7532 20.8205 31.1279C20.7349 30.0926 20.6464 29.0569 20.6092 28.0193C20.5724 26.999 20.6018 25.9763 20.5956 24.9549C20.5926 24.5262 20.5805 24.0973 20.5575 23.6688C20.5239 23.0428 20.4566 22.418 20.4478 21.7918C20.4448 21.5955 20.5384 21.3594 20.6657 21.2077C21.0977 20.695 21.6818 20.433 22.3191 20.2447C22.7747 20.1102 23.1174 20.3631 23.5059 20.4672C23.5793 20.4865 23.6491 20.5182 23.7485 20.5546C24.8243 19.5976 26.0015 19.578 27.2038 20.2691C27.2562 20.1835 27.2916 20.1525 27.2928 20.1201C27.3528 18.7449 27.4318 17.3703 27.4613 15.9942C27.5068 13.8692 27.5102 11.7435 27.5477 9.61845C27.561 8.87203 27.6215 8.12675 27.6626 7.38056C27.7059 6.58425 28.0371 5.94611 28.7024 5.48956C29.2633 5.10382 29.7564 5.19738 30.0842 5.78703C30.2164 6.02426 30.3138 6.29001 30.3768 6.55506C30.8125 8.38077 30.9062 10.2472 30.9782 12.1115C31.0297 13.429 31.0145 14.7492 31.0348 16.0678C31.0573 17.542 31.0925 19.0157 31.1088 20.49C31.1157 21.0858 31.0725 21.6831 31.1175 22.2768C31.1582 22.2837 31.1996 22.2895 31.2407 22.2952ZM26.5833 31.244C25.927 31.9594 25.6332 32.8539 25.1698 33.7727C24.9379 33.2826 25.0983 32.9178 25.2172 32.5654C25.4806 31.7863 25.9735 31.15 26.5247 30.5539C26.6268 30.4431 26.7181 30.322 26.8624 30.1473C26.6992 30.1316 26.6102 30.1185 26.5213 30.1155C25.7921 30.0893 25.2179 29.7905 24.9268 29.1047C24.794 28.7916 24.6169 28.6942 24.3011 28.7126C23.9478 28.7333 23.5928 28.7218 23.2386 28.7151C22.3728 28.6988 21.7437 28.2599 21.3094 27.5503C21.1894 27.3533 21.1765 27.0604 21.194 26.817C21.2205 26.4308 21.1446 26.088 20.9556 25.7283C20.9556 26.5436 20.9251 27.3223 20.963 28.0976C21.0172 29.2139 21.109 30.3296 21.2113 31.4426C21.2692 32.0661 21.3457 32.692 21.4768 33.3033C21.6365 34.0516 21.8526 34.789 22.0634 35.5258C22.3462 36.5152 22.8218 37.4193 23.3383 38.303C23.7291 38.9708 24.0553 39.6744 24.091 40.4514C24.1365 41.4512 24.1533 42.4544 23.9574 43.4495C23.5627 45.4527 23.1915 47.461 22.8013 49.4653C22.7303 49.8313 22.5935 50.1839 22.522 50.5492C22.4404 50.9662 22.5151 51.1289 22.8758 51.2374C23.9078 51.5501 24.9468 51.84 25.9866 52.1273C26.1732 52.1781 26.3755 52.1919 26.5695 52.1887C27.8079 52.1634 29.0481 52.1634 30.283 52.0825C31.0784 52.0303 31.8738 51.9381 32.6081 51.5266C33.1253 51.2361 33.5122 50.8361 33.8676 50.3922C33.9653 50.2699 34.0039 50.0609 33.9929 49.897C33.9402 49.1149 33.885 48.3315 33.7873 47.5536C33.5784 45.8794 33.2922 44.213 33.1345 42.5346C33.0152 41.2657 33.0232 39.9827 33.0156 38.7062C33.008 37.5239 33.4759 36.4938 34.1308 35.5306C34.794 34.5555 35.4747 33.5877 36.0657 32.5688C36.4466 31.9123 36.8432 31.1916 36.9409 30.4606C37.0914 29.3247 36.9374 28.1726 35.8843 27.3993C34.328 26.2551 32.6945 25.2365 30.949 24.4028C30.2499 24.0692 29.5283 23.7904 28.7417 23.8529C28.2764 23.8901 27.8008 23.9789 27.3626 24.1356C26.6238 24.4002 25.9063 24.7283 25.1873 25.0462C24.3248 25.4273 23.4648 25.8152 22.6145 26.2234C22.3177 26.3664 22.028 26.5501 21.7825 26.7685C21.4936 27.0252 21.4968 27.356 21.7214 27.6708C22.006 28.0687 22.425 28.2765 22.8816 28.294C24.077 28.3399 25.2829 28.4192 26.4461 28.0287C26.7792 27.917 27.1047 27.7747 27.4173 27.6154C27.8284 27.4066 27.83 27.3977 28.1042 27.8126C28.3415 28.1721 28.5631 28.5448 28.8274 28.8841C29.687 29.987 30.6966 30.8548 32.1899 30.9199C32.371 30.9279 32.371 30.9403 32.5782 31.2629C32.1258 31.3868 31.7163 31.2971 31.3145 31.1555C30.5389 30.881 29.8911 30.4059 29.304 29.8401C29.1084 29.6509 28.9178 29.4565 28.7222 29.2618C27.8638 29.8089 27.2369 30.5318 26.5833 31.244ZM28.1606 7.05666C28.0491 7.57159 28.0086 8.10859 27.9983 8.63686C27.9516 10.9389 27.9417 13.2416 27.8898 15.5432C27.8622 16.7604 27.776 17.9762 27.7137 19.1925C27.6727 19.9966 27.6479 20.8026 27.5739 21.604C27.5364 22.0106 27.3967 22.4065 27.3213 22.8108C27.2755 23.0536 27.2645 23.3028 27.2341 23.5911C27.4038 23.5805 27.5008 23.5922 27.5861 23.5662C28.5385 23.2791 29.464 23.4175 30.3469 23.8014C32.1209 24.572 33.7653 25.5738 35.3326 26.7046C35.4724 26.8053 35.6195 26.8965 35.8457 27.0471C35.8457 26.7082 35.8618 26.445 35.8429 26.1843C35.8013 25.6175 35.7429 25.0522 35.6901 24.486C35.6411 23.9591 35.5901 23.4324 35.5381 22.9058C35.5305 22.8281 35.5069 22.7508 35.5034 22.6729C35.4675 21.9083 35.4404 21.1433 35.4 20.3789C35.3158 18.7916 35.2241 17.2041 35.137 15.6167C35.1007 14.9512 35.0896 14.2832 35.0262 13.62C34.9163 12.4699 34.854 11.3113 34.5551 10.1879C34.5048 10.0005 34.4165 9.8196 34.3202 9.65017C34.1731 9.39018 33.9381 9.26972 33.6356 9.26466C33.3175 9.25938 33.2614 9.51891 33.1685 9.72305C32.8117 10.5058 32.7276 11.3561 32.6536 12.1924C32.5274 13.6181 32.4936 15.0521 32.3841 16.4795C32.2821 17.8073 32.1435 19.1328 31.9968 20.4566C31.9322 21.0389 31.8237 21.6187 31.6996 22.1915C31.6609 22.3676 31.5357 22.5621 31.3913 22.666C31.2757 22.7488 31.0543 22.7564 30.9106 22.7069C30.7495 22.6508 30.7003 22.4936 30.7003 22.2791C30.701 20.1576 30.6789 18.0355 30.6525 15.914C30.6361 14.5961 30.6136 13.2779 30.5715 11.9607C30.5132 10.1325 30.4387 8.30422 30.0024 6.51529C29.9302 6.2192 29.8099 5.93484 29.7178 5.66082C28.9061 5.76243 28.333 6.26035 28.1606 7.05666ZM23.3117 25.3611C23.8117 25.1221 23.8075 25.0772 23.7326 24.5455C23.6581 24.0237 23.6119 23.4959 23.5887 22.9692C23.565 22.4389 23.5875 21.9067 23.5848 21.3757C23.5822 20.8288 23.1708 20.453 22.6409 20.5822C22.246 20.6785 21.8542 20.8428 21.5041 21.05C21.0216 21.3359 20.7828 21.7536 20.8241 22.3727C20.8894 23.3453 21.2549 25.4821 21.5653 26.1646C22.1717 25.8869 22.7453 25.6319 23.3117 25.3611ZM26.824 23.7908C26.9001 22.7212 26.9764 21.6562 27.0585 20.5159C26.3532 20.1332 25.5896 19.998 24.7889 20.4474C24.7202 20.4858 24.6574 20.5357 24.5859 20.5658C24.1298 20.7578 23.9636 21.0847 23.9981 21.586C24.0634 22.5233 24.0714 23.4642 24.1112 24.4032C24.1174 24.557 24.1655 24.709 24.2071 24.9338C25.1346 24.5285 25.9919 24.154 26.824 23.7908ZM25.2218 28.7682C25.3344 29.5576 26.3204 30.0027 26.9551 29.5746C27.1774 29.425 27.2633 29.2349 27.2003 28.973C27.1553 28.7854 27.1217 28.5956 27.0785 28.3878C26.4316 28.5206 25.8257 28.6445 25.2218 28.7682ZM27.9008 28.0165C27.3916 28.214 27.3916 28.214 27.6675 29.4245C27.9383 29.2464 28.1812 29.0864 28.4845 28.8875C28.2553 28.5455 28.0743 28.2763 27.9008 28.0165Z" fill="black"/>
</svg>
